# Blender v2.91.2 OBJ File: 'Asteoriden.blend'
# www.blender.org
mtllib Asteorid2.mtl
o Asteroid_2_Würfel.003
v 1.542162 2.665901 -3.421517
v 1.221003 -1.335929 -3.421517
v 3.030563 -1.335929 -1.163049
v 3.375937 -1.005127 -0.898463
v 2.868743 1.097539 -3.421517
v 3.375937 1.128398 -2.804030
v -0.933007 -1.335929 -3.421517
v -3.108757 -0.489983 -0.672877
v -1.514546 -1.335929 -0.026262
v -0.658074 3.495559 -2.379580
v -0.161653 3.078105 -3.421517
v -0.160359 3.495559 1.912785
v -2.470516 3.495559 -0.423158
v -3.108757 3.028728 -0.300153
v -3.108757 -0.161525 0.222737
v 1.024994 2.616707 3.063178
v -0.178510 3.256030 2.288679
v -3.108757 2.637484 0.343809
v 2.860147 3.495559 1.360781
v 2.465066 2.447511 3.063178
v -1.080813 -1.335929 0.777225
v 1.589452 -0.627922 3.063178
v 1.642982 -1.350386 1.069528
v -2.169856 -0.576980 0.829219
v 1.217484 -0.387602 3.063178
v 3.375937 0.126456 1.989804
v 3.375937 3.300126 0.355383
v 3.207650 3.495559 0.897522
v 2.804168 2.282879 3.063178
v 3.134193 3.495559 1.178098
v 3.065725 0.342974 3.063178
v -3.108757 -0.444740 -1.205260
v -1.844742 -0.883557 -3.421517
v -3.108757 2.224369 -1.275281
v 1.749551 -1.244907 0.950661
v 1.170079 -0.939358 2.298374
v 0.267272 -1.309029 1.160938
v 1.923809 -1.088889 1.494279
v 1.253721 -1.363269 0.650043
v 0.735585 -1.255789 1.350226
v 0.594770 -1.015811 2.182606
v 1.694958 -0.968218 2.026532
v 1.109463 -1.102698 1.821271
v 0.668323 -1.388593 0.733088
v 0.238224 -1.161806 1.733397
v 1.349439 -1.229235 1.263144
v 1.161431 -1.096469 2.189501
v 0.411183 -1.403672 1.244272
v 1.787793 -1.220732 1.521284
v 1.230939 -1.448747 0.819709
v 0.683339 -1.160003 2.093295
v 1.597614 -1.120453 1.963596
v 0.744463 -1.469791 0.888721
v 0.387043 -1.281327 1.719995
v 1.421604 -1.164623 1.488272
v 1.144102 -1.278252 1.138650
v 1.129581 -1.210940 1.400762
v 0.871211 -1.134359 1.773328
v 1.326830 -1.114650 1.708694
v 1.099068 -1.165840 1.582774
v 0.901672 -1.288739 1.173041
v 0.723555 -1.194820 1.587298
v 0.965838 -1.210940 1.451104
v 3.406996 2.709165 -0.741429
v 3.297124 2.271363 -1.684214
v 2.707623 3.092219 -1.417249
v 3.562659 2.400265 -0.966730
v 3.125115 3.009526 -0.768582
v 2.861639 2.905213 -1.348358
v 3.000173 2.511677 -1.840677
v 3.519267 2.227364 -1.339065
v 3.207367 2.423802 -1.504926
v 2.848911 3.160806 -1.035484
v 2.767361 2.835858 -1.735245
v 3.271804 2.680562 -0.952006
v 3.389765 2.737934 -0.867933
v 3.301728 2.387136 -1.623358
v 2.829379 3.044863 -1.409447
v 3.514493 2.490421 -1.048460
v 3.163903 2.978604 -0.889690
v 3.063790 2.579692 -1.748728
v 3.479724 2.351880 -1.346801
v 2.942589 3.099820 -1.103551
v 2.877245 2.839449 -1.664248
v 3.363096 2.499400 -1.084140
v 3.106488 2.856716 -0.967931
v 3.136963 2.720756 -1.138855
v 3.033213 2.564740 -1.596688
v 3.337648 2.397997 -1.302505
v 3.136962 2.607973 -1.328333
v 2.944501 2.945438 -1.124462
v 2.896674 2.754864 -1.534854
v 3.066885 2.680848 -1.338102
v -1.728857 1.120418 -3.440908
v -2.175619 1.568579 -2.927377
v -1.542034 1.903659 -3.315254
v -1.984260 1.092096 -3.247115
v -1.513996 1.340802 -3.535007
v -1.648980 1.712414 -3.241395
v -2.022036 1.850432 -2.951042
v -2.160701 1.269089 -3.044306
v -1.976360 1.539274 -3.040975
v -1.440214 1.650128 -3.485383
v -1.771813 1.982765 -3.104227
v -1.745514 1.307706 -3.306321
v -1.787396 1.225221 -3.445993
v -2.139298 1.578224 -3.041501
v -1.640242 1.842156 -3.347019
v -1.988570 1.202913 -3.293348
v -1.618157 1.398811 -3.520112
v -2.018325 1.800231 -3.060141
v -2.127547 1.342324 -3.133602
v -1.560041 1.642458 -3.481025
v -1.821232 1.904466 -3.180800
v -1.877483 1.293071 -3.206187
v -1.634493 1.421580 -3.354943
v -1.796310 1.445691 -3.217413
v -1.897002 1.684911 -3.053203
v -1.968652 1.384525 -3.101394
v -1.833794 1.541637 -3.153866
v -1.596369 1.581412 -3.329303
v -1.767709 1.753289 -3.132355
v -1.740749 1.572066 -3.217413
vt 0.352017 0.320728
vt 0.411560 0.833213
vt 0.591118 0.840634
vt 0.615766 0.326357
vt 0.591919 0.104838
vt 0.420276 0.109506
vt 0.375000 0.416922
vt 0.532551 0.480447
vt 0.533740 0.523806
vt 0.387753 0.597270
vt 0.375000 0.600384
vt 0.392440 0.298731
vt 0.375000 0.333880
vt 0.186461 0.630895
vt 0.253044 0.701398
vt 0.284727 0.613967
vt 0.569600 0.558925
vt 0.581975 0.584753
vt 0.595729 0.607740
vt 0.614029 0.633567
vt 0.617466 0.645608
vt 0.431378 0.708619
vt 0.598308 0.527471
vt 0.588375 0.538355
vt 0.579533 0.548042
vt 0.593015 0.429304
vt 0.578248 0.683871
vt 0.633996 0.677002
vt 0.644885 0.684369
vt 0.584595 0.644652
vt 0.625000 0.179935
vt 0.607003 0.129664
vt 0.615766 0.507344
vt 0.625000 0.322367
vt 0.382626 0.760474
vt 0.388766 0.787269
vt 0.388766 0.787269
vt 0.382626 0.760474
vt 0.591118 0.478097
vt 0.625000 0.628465
vt 0.625000 0.660021
vt 0.634320 0.677326
vt 0.439726 0.761959
vt 0.402295 0.818873
vt 0.203182 0.661871
vt 0.242268 0.685595
vt 0.298976 0.691694
vt 0.335758 0.732607
vt 0.370746 0.789844
vt 0.578248 0.772043
vt 0.584595 0.785116
vt 0.276073 0.749493
vt 0.302761 0.772979
vt 0.394835 0.813933
vt 0.388766 0.787269
vt 0.382626 0.760474
vt 0.375000 0.727360
vt 0.780520 0.540169
vt 0.850394 0.615594
vt 0.761332 0.705650
vt 0.631488 0.666509
vt 0.409357 0.164558
vt 0.575993 0.167258
vt 0.556955 0.262122
vt 0.539201 0.274444
vt 0.523182 0.285412
vt 0.504941 0.297734
vt 0.529748 0.304511
vt 0.549082 0.310542
vt 0.567681 0.317318
vt 0.608906 0.363618
vt 0.407613 0.144034
vt 0.267186 0.681001
vt 0.267186 0.681001
vt 0.242268 0.685595
vt 0.394835 0.813933
vt 0.289364 0.675163
vt 0.314282 0.666641
vt 0.314282 0.666641
vt 0.289364 0.675163
vt 0.298976 0.691694
vt 0.335758 0.732607
vt 0.208880 0.500000
vt 0.291922 0.500000
vt 0.361685 0.587069
vt 0.267186 0.681001
vt 0.242268 0.685595
vt 0.394835 0.813933
vt 0.298976 0.691694
vt 0.335758 0.732607
vt 0.289364 0.675163
vt 0.375000 0.727360
vt 0.375000 0.727360
vt 0.370746 0.789844
vt 0.375000 0.781081
vt 0.367669 0.763739
vt 0.378602 0.803185
vt 0.370746 0.789844
vt 0.302097 0.726680
vt 0.319824 0.762121
vt 0.275403 0.705708
vt 0.294226 0.700307
vt 0.291832 0.698215
vt 0.379628 0.799311
vt 0.277607 0.704775
vt 0.314282 0.666641
vt 0.581975 0.584753
vt 0.595729 0.607740
vt 0.603748 0.564182
vt 0.603748 0.564182
vt 0.598308 0.527471
vt 0.569600 0.558925
vt 0.608590 0.596856
vt 0.614029 0.633567
vt 0.608590 0.596856
vt 0.588375 0.538355
vt 0.579533 0.548042
vt 0.625000 0.384649
vt 0.581975 0.584753
vt 0.595729 0.607740
vt 0.603748 0.564182
vt 0.598308 0.527471
vt 0.569600 0.558925
vt 0.614029 0.633567
vt 0.608590 0.596856
vt 0.588375 0.538355
vt 0.579533 0.548042
vt 0.602220 0.592187
vt 0.588709 0.577640
vt 0.600244 0.563374
vt 0.603554 0.585842
vt 0.588883 0.577528
vt 0.597323 0.564007
vt 0.523182 0.285412
vt 0.504941 0.297734
vt 0.539201 0.274444
vt 0.549082 0.310542
vt 0.567681 0.317318
vt 0.556955 0.262122
vt 0.529748 0.304511
vt 0.560667 0.284194
vt 0.563970 0.301323
vt 0.563970 0.301323
vt 0.560667 0.284194
vt 0.539201 0.274444
vt 0.523182 0.285412
vt 0.549082 0.310542
vt 0.567681 0.317318
vt 0.556955 0.262122
vt 0.504941 0.297734
vt 0.529748 0.304511
vt 0.563970 0.301323
vt 0.560667 0.284194
vt 0.539489 0.297428
vt 0.552400 0.284823
vt 0.554422 0.302427
vt 0.539242 0.299408
vt 0.549721 0.284243
vt 0.556037 0.298655
vn -0.5496 -0.0338 0.8348
vn 0.7024 -0.4611 -0.5423
vn -0.4432 -0.8932 -0.0759
vn 1.0000 -0.0062 0.0022
vn 0.6330 0.5673 -0.5268
vn 0.3653 0.7525 0.5480
vn -0.4649 0.7567 0.4597
vn -0.1630 -0.9750 0.1510
vn 0.0983 0.8371 0.5382
vn 0.9593 0.1293 0.2511
vn -0.3595 -0.6919 0.6261
vn -0.0000 0.0000 1.0000
vn -0.5378 -0.7915 0.2903
vn 0.4984 -0.8106 0.3076
vn 0.0000 1.0000 -0.0000
vn -0.8619 -0.0151 -0.5068
vn -0.0004 0.0033 -1.0000
vn -1.0000 0.0000 0.0000
vn 0.6718 -0.6058 0.4262
vn -0.4311 -0.8691 -0.2425
vn 0.3620 -0.5443 0.7567
vn 0.4188 -0.8323 -0.3631
vn -0.4733 -0.6553 0.5887
vn -0.6079 -0.7759 0.1687
vn -0.0256 -0.8914 -0.4525
vn 0.0048 -1.0000 0.0042
vn 0.2641 -0.8730 0.4099
vn -0.0430 -0.9988 0.0230
vn 0.2804 -0.9558 0.0881
vn 0.3326 -0.9092 0.2507
vn 0.1071 -0.8644 0.4912
vn -0.1717 -0.9310 0.3222
vn 0.6943 -0.7195 -0.0160
vn -0.0903 -0.5639 0.8209
vn 0.0775 -0.9646 0.2520
vn -0.0650 -0.8873 0.4566
vn 0.1321 -0.9912 -0.0019
vn 0.9297 0.2804 -0.2386
vn 0.3628 0.8845 -0.2932
vn 0.8311 0.2325 -0.5052
vn 0.7254 0.6859 0.0572
vn 0.4412 0.5480 -0.7106
vn 0.3325 0.7638 -0.5533
vn 0.5180 0.8538 -0.0521
vn 0.2217 0.9399 -0.2595
vn 0.1543 0.8891 -0.4309
vn 0.9326 0.0598 -0.3559
vn 0.2898 0.9549 -0.0648
vn 0.4348 0.3324 -0.8369
vn 0.8250 0.5218 0.2172
vn 0.9742 0.2256 0.0012
vn 0.7196 0.1020 -0.6869
vn 0.8880 0.4595 -0.0165
vn 0.6381 0.3382 -0.6917
vn 0.6944 0.6184 -0.3681
vn 0.2116 0.6433 -0.7358
vn 0.5546 0.8098 0.1912
vn -0.5439 -0.3410 -0.7667
vn -0.8269 -0.2436 -0.5068
vn -0.0650 0.5379 -0.8405
vn -0.9523 0.0686 -0.2973
vn -0.2358 -0.1781 -0.9554
vn -0.5968 0.7210 -0.3521
vn -0.2823 0.7559 -0.5907
vn -0.5722 0.6278 -0.5276
vn -0.0549 0.7281 -0.6832
vn -0.9384 -0.1780 -0.2963
vn 0.0905 0.3661 -0.9262
vn -0.7403 0.6521 -0.1631
vn -0.3217 -0.3903 -0.8627
vn -0.6864 -0.4308 -0.5859
vn -0.9597 0.2497 -0.1293
vn -0.8615 0.4496 -0.2362
vn -0.0466 0.1691 -0.9845
vn -0.6014 0.2644 -0.7539
vn -0.3830 0.8411 -0.3819
vn -0.0149 -0.0756 -0.9970
usemtl None
s off
f 24/1/1 25/2/1 16/3/1 17/4/1 18/5/1 15/6/1
f 2/7/2 5/8/2 6/9/2 4/10/2 3/11/2
f 33/12/3 7/13/3 9/14/3 8/15/3 32/16/3
f 4/10/4 6/9/4 65/17/4 71/18/4 67/19/4 64/20/4 27/21/4 26/22/4
f 66/23/5 74/24/5 70/25/5 65/17/5 6/9/5 5/8/5 1/26/5
f 29/27/6 30/28/6 19/29/6 20/30/6
f 13/31/7 14/32/7 18/5/7 17/33/7 12/34/7
f 49/35/8 52/36/8 59/37/8 55/38/8
f 12/34/9 17/4/9 16/39/9 20/30/9 19/40/9
f 27/21/10 28/41/10 30/42/10 29/27/10 31/43/10 26/22/10
f 22/44/11 25/2/11 24/1/11 21/45/11 37/46/11 45/47/11 41/48/11 36/49/11
f 31/43/12 29/50/12 20/51/12 16/3/12 25/2/12 22/44/12
f 9/14/13 21/45/13 24/52/13 15/53/13 8/15/13
f 31/43/14 22/44/14 36/54/14 42/55/14 38/56/14 35/57/14 3/11/14 4/10/14 26/22/14
f 10/58/15 13/59/15 12/60/15 19/29/15 30/42/15 28/61/15
f 32/62/16 34/63/16 95/64/16 101/65/16 97/66/16 94/67/16 33/12/16
f 33/12/17 94/67/17 98/68/17 103/69/17 96/70/17 11/71/17 1/26/17 5/8/17 2/7/17 7/13/17
f 15/6/18 18/5/18 14/32/18 34/63/18 32/62/18 8/72/18
f 38/56/19 42/55/19 52/36/19 49/35/19
f 37/46/20 44/73/20 53/74/20 48/75/20
f 42/55/21 36/54/21 47/76/21 52/36/21
f 39/77/22 35/78/22 23/79/22 50/80/22
f 41/48/23 45/47/23 54/81/23 51/82/23
f 45/47/24 37/46/24 48/75/24 54/81/24
f 44/73/25 39/77/25 50/80/25 53/74/25
f 7/83/26 2/84/26 3/85/26 35/78/26 39/77/26 44/73/26 37/46/26 21/45/26 9/14/26
f 48/75/27 53/74/27 61/86/27 40/87/27
f 52/36/28 47/76/28 43/88/28 59/37/28
f 51/82/29 54/81/29 62/89/29 58/90/29
f 54/81/30 48/75/30 40/87/30 62/89/30
f 53/74/31 50/80/31 56/91/31 61/86/31
f 23/92/32 49/35/32 55/38/32 46/93/32
f 35/57/33 38/56/33 49/35/33 23/92/33
f 36/49/34 41/48/34 51/82/34 47/94/34
f 46/93/35 55/38/35 57/95/35 56/96/35
f 55/38/35 59/37/35 60/97/35 57/95/35
f 43/98/35 58/90/35 60/99/35 59/100/35
f 58/90/35 62/89/35 63/101/35 60/99/35
f 40/87/35 61/86/35 63/101/35 62/89/35
f 61/86/35 56/91/35 57/102/35 63/101/35
f 57/103/35 60/104/35 63/105/35
f 50/80/36 23/79/36 46/106/36 56/91/36
f 47/94/37 51/82/37 58/90/37 43/98/37
f 67/19/38 71/18/38 82/107/38 79/108/38
f 66/23/39 73/109/39 83/110/39 78/111/39
f 71/18/40 65/17/40 77/112/40 82/107/40
f 68/113/41 64/20/41 76/114/41 80/115/41
f 70/25/42 74/24/42 84/116/42 81/117/42
f 74/24/43 66/23/43 78/111/43 84/116/43
f 73/109/44 68/113/44 80/115/44 83/110/44
f 27/21/45 64/20/45 68/113/45 73/109/45 66/23/45 1/26/45 11/71/45 10/118/45 28/41/45
f 79/108/46 82/107/46 89/119/46 85/120/46
f 78/111/47 83/110/47 91/121/47 69/122/47
f 82/107/48 77/112/48 72/123/48 89/119/48
f 80/115/49 76/114/49 75/124/49 86/125/49
f 81/117/50 84/116/50 92/126/50 88/127/50
f 84/116/51 78/111/51 69/122/51 92/126/51
f 83/110/52 80/115/52 86/125/52 91/121/52
f 64/20/53 67/19/53 79/108/53 76/114/53
f 65/17/54 70/25/54 81/117/54 77/112/54
f 75/124/55 85/120/55 87/128/55 86/125/55
f 85/120/55 89/119/55 90/129/55 87/128/55
f 72/123/55 88/127/55 90/129/55 89/119/55
f 88/127/55 92/126/55 93/130/55 90/129/55
f 69/122/55 91/121/55 93/130/55 92/126/55
f 91/121/55 86/125/55 87/128/55 93/130/55
f 87/131/55 90/132/55 93/133/55
f 76/114/56 79/108/56 85/120/56 75/124/56
f 77/112/57 81/117/57 88/127/57 72/123/57
f 94/67/58 97/66/58 109/134/58 106/135/58
f 97/66/59 101/65/59 112/136/59 109/134/59
f 96/70/60 103/69/60 113/137/60 108/138/60
f 101/65/61 95/64/61 107/139/61 112/136/61
f 98/68/62 94/67/62 106/135/62 110/140/62
f 100/141/63 104/142/63 114/143/63 111/144/63
f 104/142/64 96/70/64 108/138/64 114/143/64
f 10/118/65 11/71/65 96/70/65 104/142/65 100/141/65 95/64/65 34/63/65 14/32/65 13/31/65
f 109/134/66 112/136/66 119/145/66 115/146/66
f 108/138/67 113/137/67 121/147/67 99/148/67
f 112/136/68 107/139/68 102/149/68 119/145/68
f 110/140/69 106/135/69 105/150/69 116/151/69
f 111/144/70 114/143/70 122/152/70 118/153/70
f 114/143/71 108/138/71 99/148/71 122/152/71
f 113/137/72 110/140/72 116/151/72 121/147/72
f 95/64/73 100/141/73 111/144/73 107/139/73
f 103/69/74 98/68/74 110/140/74 113/137/74
f 105/150/75 115/146/75 117/154/75 116/151/75
f 115/146/75 119/145/75 120/155/75 117/154/75
f 102/149/75 118/153/75 120/155/75 119/145/75
f 118/153/75 122/152/75 123/156/75 120/155/75
f 99/148/75 121/147/75 123/156/75 122/152/75
f 121/147/75 116/151/75 117/154/75 123/156/75
f 117/157/75 120/158/75 123/159/75
f 106/135/76 109/134/76 115/146/76 105/150/76
f 107/139/77 111/144/77 118/153/77 102/149/77
