# Blender v2.90.1 OBJ File: 'Planeten.blend'
# www.blender.org
v 0.000000 -7.770000 0.000000
v 5.622428 -3.474896 4.084886
v -2.147535 -3.474898 6.609544
v -6.949691 -3.474865 0.000000
v -2.147535 -3.474898 -6.609544
v 5.622428 -3.474896 -4.084886
v 2.147535 3.474898 6.609544
v -5.622428 3.474896 4.084886
v -5.622428 3.474896 -4.084886
v 2.147535 3.474898 -6.609544
v 6.949691 3.474865 0.000000
v 0.000000 7.770000 0.000000
v -1.262280 -6.609584 3.884963
v 3.304757 -6.609583 2.401018
v 2.042490 -4.084981 6.286020
v 6.609534 -4.084968 0.000000
v 3.304757 -6.609583 -2.401018
v -4.084920 -6.609562 0.000000
v -5.347230 -4.084970 3.884976
v -1.262280 -6.609584 -3.884963
v -5.347230 -4.084970 -3.884976
v 2.042490 -4.084981 -6.286020
v 7.389719 0.000000 2.401028
v 7.389719 0.000000 -2.401028
v 0.000000 0.000000 7.770000
v 4.567093 0.000000 6.286059
v -7.389719 0.000000 2.401028
v -4.567093 0.000000 6.286059
v -4.567093 0.000000 -6.286059
v -7.389719 0.000000 -2.401028
v 4.567093 0.000000 -6.286059
v 0.000000 0.000000 -7.770000
v 5.347230 4.084970 3.884976
v -2.042490 4.084981 6.286020
v -6.609534 4.084968 0.000000
v -2.042490 4.084981 -6.286020
v 5.347230 4.084970 -3.884976
v 1.262280 6.609584 3.884963
v 4.084920 6.609562 0.000000
v -3.304757 6.609583 2.401018
v -3.304757 6.609583 -2.401018
v 1.262280 6.609584 -3.884963
vt 0.059073 0.456691
vt 0.056344 0.448547
vt 0.062875 0.450197
vt 0.053025 0.441693
vt 0.049058 0.448547
vt 0.063182 0.460032
vt 0.056840 0.464460
vt 0.052614 0.457362
vt 0.047532 0.441381
vt 0.052285 0.436697
vt 0.050334 0.441381
vt 0.046891 0.433113
vt 0.063147 0.428003
vt 0.058034 0.433113
vt 0.058034 0.422893
vt 0.067625 0.422279
vt 0.074098 0.421927
vt 0.070143 0.430552
vt 0.035570 0.436697
vt 0.030176 0.433113
vt 0.034935 0.428003
vt 0.069910 0.464323
vt 0.065770 0.457670
vt 0.073050 0.457309
vt 0.051649 0.428003
vt 0.063605 0.419735
vt 0.063658 0.428580
vt 0.041319 0.433113
vt 0.075568 0.449035
vt 0.069096 0.448684
vt 0.073136 0.441381
vt 0.046679 0.456691
vt 0.043803 0.464460
vt 0.040744 0.457362
vt 0.040333 0.441693
vt 0.044299 0.448547
vt 0.037014 0.448547
vt 0.035570 0.419309
vt 0.033619 0.414625
vt 0.040506 0.414625
vt 0.046432 0.428003
vt 0.041319 0.422893
vt 0.046891 0.419735
vt 0.030176 0.460032
vt 0.030483 0.450197
vt 0.034284 0.456691
vt 0.034038 0.441381
vt 0.036518 0.464460
vt 0.079588 0.445493
vt 0.065855 0.441742
vt 0.063182 0.449649
vt 0.030176 0.422893
vt 0.066984 0.437566
vt 0.073283 0.437566
vt 0.045826 0.441381
vt 0.057221 0.414625
vt 0.052285 0.419309
vt 0.046891 0.422893
vt 0.079535 0.455337
vt 0.063605 0.418736
vt 0.077424 0.430913
vt 0.080011 0.422892
vt 0.076209 0.464323
vt 0.046891 0.436271
vt 0.040506 0.441381
vt 0.049555 0.464460
vt 0.046679 0.456691
vt 0.070057 0.414625
vt 0.077338 0.414985
vt 0.063605 0.436271
vt 0.057221 0.441381
vt 0.059320 0.441381
vn 0.1024 -0.9435 0.3151
vn 0.7002 -0.6617 0.2680
vn -0.2680 -0.9435 0.1947
vn -0.2680 -0.9435 -0.1947
vn 0.1024 -0.9435 -0.3151
vn 0.9050 -0.3304 0.2680
vn 0.0247 -0.3304 0.9435
vn -0.8897 -0.3304 0.3151
vn -0.5746 -0.3304 -0.7488
vn 0.5346 -0.3304 -0.7779
vn 0.8026 -0.1256 0.5831
vn -0.3066 -0.1256 0.9435
vn -0.9921 -0.1256 0.0000
vn -0.3066 -0.1256 -0.9435
vn 0.8026 -0.1256 -0.5831
vn 0.4089 0.6617 0.6284
vn -0.4713 0.6617 0.5831
vn -0.7002 0.6617 -0.2680
vn 0.0385 0.6617 -0.7488
vn 0.7240 0.6617 -0.1947
vn 0.2680 0.9435 -0.1947
vn 0.4911 0.7947 -0.3568
vn 0.4089 0.6617 -0.6284
vn -0.1024 0.9435 -0.3151
vn -0.1876 0.7947 -0.5773
vn -0.4713 0.6617 -0.5831
vn -0.3313 0.9435 0.0000
vn -0.6071 0.7947 0.0000
vn -0.7002 0.6617 0.2680
vn -0.1024 0.9435 0.3151
vn -0.1876 0.7947 0.5773
vn 0.0385 0.6617 0.7488
vn 0.2680 0.9435 0.1947
vn 0.4911 0.7947 0.3568
vn 0.7240 0.6617 0.1947
vn 0.8897 0.3304 -0.3151
vn 0.7947 0.1876 -0.5773
vn 0.5746 0.3304 -0.7488
vn -0.0247 0.3304 -0.9435
vn -0.3035 0.1876 -0.9342
vn -0.5346 0.3304 -0.7779
vn -0.9050 0.3304 -0.2680
vn -0.9822 0.1876 0.0000
vn -0.9050 0.3304 0.2680
vn -0.5346 0.3304 0.7779
vn -0.3035 0.1876 0.9342
vn -0.0247 0.3304 0.9435
vn 0.5746 0.3304 0.7488
vn 0.7947 0.1876 0.5773
vn 0.8897 0.3304 0.3151
vn 0.3066 0.1256 -0.9435
vn 0.3035 -0.1876 -0.9342
vn 0.0247 -0.3304 -0.9435
vn -0.8026 0.1256 -0.5831
vn -0.7947 -0.1876 -0.5773
vn -0.8897 -0.3304 -0.3151
vn -0.8026 0.1256 0.5831
vn -0.7947 -0.1876 0.5773
vn -0.5746 -0.3304 0.7488
vn 0.3066 0.1256 0.9435
vn 0.3035 -0.1876 0.9342
vn 0.5346 -0.3304 0.7779
vn 0.9921 0.1256 0.0000
vn 0.9822 -0.1876 0.0000
vn 0.9050 -0.3304 -0.2680
vn 0.4713 -0.6617 -0.5831
vn 0.1876 -0.7947 -0.5773
vn -0.0385 -0.6617 -0.7488
vn -0.4089 -0.6617 -0.6284
vn -0.4911 -0.7947 -0.3568
vn -0.7240 -0.6617 -0.1947
vn -0.7240 -0.6617 0.1947
vn -0.4911 -0.7947 0.3568
vn -0.4089 -0.6617 0.6284
vn 0.7002 -0.6617 -0.2680
vn 0.6071 -0.7947 0.0000
vn 0.3313 -0.9435 0.0000
vn -0.0385 -0.6617 0.7488
vn 0.1876 -0.7947 0.5773
vn 0.4713 -0.6617 0.5831
s off
f 1/1/1 14/2/1 13/3/1
f 2/4/2 14/2/2 16/5/2
f 1/1/3 13/3/3 18/6/3
f 1/1/4 18/6/4 20/7/4
f 1/1/5 20/7/5 17/8/5
f 2/4/6 16/5/6 23/9/6
f 3/10/7 15/11/7 25/12/7
f 4/13/8 19/14/8 27/15/8
f 5/16/9 21/17/9 29/18/9
f 6/19/10 22/20/10 31/21/10
f 2/22/11 23/23/11 26/24/11
f 3/10/12 25/12/12 28/25/12
f 4/13/13 27/15/13 30/26/13
f 5/16/14 29/18/14 32/27/14
f 6/19/15 31/21/15 24/28/15
f 7/29/16 33/30/16 38/31/16
f 8/32/17 34/33/17 40/34/17
f 9/35/18 35/36/18 41/37/18
f 10/38/19 36/39/19 42/40/19
f 11/41/20 37/42/20 39/43/20
f 39/44/21 42/45/21 12/46/21
f 39/43/22 37/42/22 42/40/22
f 37/42/23 10/38/23 42/40/23
f 42/45/24 41/37/24 12/46/24
f 42/45/25 36/47/25 41/37/25
f 36/47/26 9/35/26 41/37/26
f 41/37/27 40/34/27 12/46/27
f 41/37/28 35/36/28 40/34/28
f 35/36/29 8/32/29 40/34/29
f 40/34/30 38/48/30 12/46/30
f 40/34/31 34/33/31 38/48/31
f 34/49/32 7/29/32 38/31/32
f 38/48/33 39/44/33 12/46/33
f 38/31/34 33/30/34 39/50/34
f 33/30/35 11/51/35 39/50/35
f 24/28/36 37/42/36 11/41/36
f 24/28/37 31/21/37 37/42/37
f 31/21/38 10/38/38 37/42/38
f 32/52/39 36/39/39 10/38/39
f 32/27/40 29/18/40 36/53/40
f 29/18/41 9/54/41 36/53/41
f 30/55/42 35/36/42 9/35/42
f 30/26/43 27/15/43 35/56/43
f 27/15/44 8/57/44 35/56/44
f 28/25/45 34/58/45 8/57/45
f 28/25/46 25/12/46 34/58/46
f 25/59/47 7/29/47 34/49/47
f 26/24/48 33/30/48 7/29/48
f 26/24/49 23/23/49 33/30/49
f 23/23/50 11/51/50 33/30/50
f 31/21/51 32/52/51 10/38/51
f 31/21/52 22/20/52 32/52/52
f 22/60/53 5/16/53 32/27/53
f 29/18/54 30/61/54 9/54/54
f 29/18/55 21/17/55 30/61/55
f 21/17/56 4/62/56 30/61/56
f 27/15/57 28/25/57 8/57/57
f 27/15/58 19/14/58 28/25/58
f 19/14/59 3/10/59 28/25/59
f 25/59/60 26/24/60 7/29/60
f 25/59/61 15/63/61 26/24/61
f 15/63/62 2/22/62 26/24/62
f 23/64/63 24/28/63 11/41/63
f 23/64/64 16/65/64 24/28/64
f 16/65/65 6/19/65 24/28/65
f 17/8/66 22/66/66 6/67/66
f 17/8/67 20/7/67 22/66/67
f 20/68/68 5/16/68 22/60/68
f 20/68/69 21/17/69 5/16/69
f 20/68/70 18/69/70 21/17/70
f 18/69/71 4/62/71 21/17/71
f 18/70/72 19/14/72 4/13/72
f 18/70/73 13/71/73 19/14/73
f 13/71/74 3/10/74 19/14/74
f 16/5/75 17/8/75 6/67/75
f 16/5/76 14/2/76 17/8/76
f 14/2/77 1/1/77 17/8/77
f 13/71/78 15/11/78 3/10/78
f 13/3/79 14/2/79 15/72/79
f 14/2/80 2/4/80 15/72/80
