# Blender v2.90.1 OBJ File: ''
# www.blender.org
o Icokugel
v 0.000000 -1.000000 0.000000
v 0.723607 -0.447220 0.525725
v -0.276388 -0.447220 0.850649
v -0.894426 -0.447216 0.000000
v -0.276388 -0.447220 -0.850649
v 0.723607 -0.447220 -0.525725
v 0.276388 0.447220 0.850649
v -0.723607 0.447220 0.525725
v -0.723607 0.447220 -0.525725
v 0.276388 0.447220 -0.850649
v 0.894426 0.447216 0.000000
v 0.000000 1.000000 0.000000
v -0.162456 -0.850654 0.499995
v 0.425323 -0.850654 0.309011
v 0.262869 -0.525738 0.809012
v 0.850648 -0.525736 0.000000
v 0.425323 -0.850654 -0.309011
v -0.525730 -0.850652 0.000000
v -0.688189 -0.525736 0.499997
v -0.162456 -0.850654 -0.499995
v -0.688189 -0.525736 -0.499997
v 0.262869 -0.525738 -0.809012
v 0.951058 0.000000 0.309013
v 0.951058 0.000000 -0.309013
v 0.000000 0.000000 1.000000
v 0.587786 0.000000 0.809017
v -0.951058 0.000000 0.309013
v -0.587786 0.000000 0.809017
v -0.587786 0.000000 -0.809017
v -0.951058 0.000000 -0.309013
v 0.587786 0.000000 -0.809017
v 0.000000 0.000000 -1.000000
v 0.688189 0.525736 0.499997
v -0.262869 0.525738 0.809012
v -0.850648 0.525736 0.000000
v -0.262869 0.525738 -0.809012
v 0.688189 0.525736 -0.499997
v 0.162456 0.850654 0.499995
v 0.525730 0.850652 0.000000
v -0.425323 0.850654 0.309011
v -0.425323 0.850654 -0.309011
v 0.162456 0.850654 -0.499995
v 0.188421 0.460028 0.843857
v 0.360967 -0.367008 0.809013
v 0.927959 0.046197 0.325795
v 0.944264 0.053651 0.271941
v 0.121447 0.819327 0.529790
v 0.019407 0.982159 -0.059731
v 0.318202 0.850653 0.285633
v 0.504986 0.850652 0.028551
v 0.902837 0.380794 -0.045896
v 0.116674 0.188788 0.936953
v 0.202767 0.825741 0.499995
v 0.221760 0.814003 0.499995
v 0.861157 0.459882 -0.080656
v 0.545964 0.810184 -0.062273
v 0.534382 0.833348 0.026628
v 0.553198 0.795716 0.084539
v 0.177373 0.797833 0.545906
v 0.249354 0.542949 0.767444
v 0.749399 0.605908 0.000000
v 0.603528 0.765523 0.000000
v 0.621596 0.177037 0.704957
v 0.205025 0.000000 0.933383
v 0.447346 -0.494299 0.695585
v 0.309220 0.912157 0.000000
v 0.077219 0.850654 0.472300
v -0.369835 0.850654 -0.327041
vt 0.879850 0.782505
vt 0.867067 0.804646
vt 0.892633 0.804646
vt 0.854285 0.826786
vt 0.841502 0.804646
vt 0.828720 0.826786
vt 0.675329 0.782505
vt 0.662547 0.804646
vt 0.688112 0.804646
vt 0.726460 0.782505
vt 0.713677 0.804646
vt 0.739242 0.804646
vt 0.777590 0.782505
vt 0.764807 0.804646
vt 0.790372 0.804646
vt 0.700894 0.826786
vt 0.675329 0.826786
vt 0.688112 0.848926
vt 0.752025 0.826786
vt 0.726460 0.826786
vt 0.739242 0.848926
vt 0.803155 0.826786
vt 0.777590 0.826786
vt 0.790372 0.848926
vt 0.905415 0.826786
vt 0.892633 0.848926
vt 0.918198 0.848926
vt 0.713677 0.848926
vt 0.764807 0.848926
vt 0.815937 0.848926
vt 0.930981 0.871066
vt 0.905415 0.871066
vt 0.918198 0.893206
vt 0.726460 0.871066
vt 0.700894 0.871066
vt 0.713677 0.893206
vt 0.777590 0.871066
vt 0.752025 0.871066
vt 0.764807 0.893206
vt 0.815937 0.893206
vt 0.790372 0.893206
vt 0.801628 0.912702
vt 0.810673 0.902324
vt 0.814345 0.890449
vt 0.803155 0.871066
vt 0.741655 0.893206
vt 0.753552 0.912702
vt 0.739242 0.893206
vt 0.688112 0.893206
vt 0.700894 0.915347
vt 0.675329 0.871066
vt 0.896340 0.893206
vt 0.905415 0.915347
vt 0.893865 0.891072
vt 0.867067 0.893206
vt 0.856107 0.893206
vt 0.842962 0.893206
vt 0.846767 0.902324
vt 0.854285 0.915347
vt 0.866087 0.891509
vt 0.865626 0.890709
vt 0.662547 0.848926
vt 0.649764 0.826786
vt 0.815937 0.804646
vt 0.828720 0.782505
vt 0.879850 0.826786
vt 0.869614 0.826786
vt 0.892633 0.893206
vt 0.841502 0.893206
vt 0.843664 0.889463
vt 0.838805 0.888535
vt 0.842183 0.892027
vt 0.868741 0.890308
vt 0.818635 0.888535
vt 0.890959 0.890308
vt 0.752025 0.915347
vt 0.803155 0.915347
vt 0.085002 0.180361
vt 0.081051 0.114216
vt 0.138094 0.151292
vt 0.085225 0.309031
vt 0.076744 0.245971
vt 0.140985 0.278381
vt 0.135372 0.212359
vt 0.183230 0.237003
vt 0.189373 0.184257
vt 0.236797 0.220109
vt 0.196678 0.234466
vt 0.188274 0.130399
vt 0.193107 0.122619
vt 0.210126 0.136299
vt 0.211530 0.289545
vt 0.187518 0.245139
vt 0.234475 0.227162
vt 0.239693 0.231784
vt 0.233535 0.144062
vt 0.236554 0.155766
vt 0.149253 0.084867
vt 0.221784 0.079976
vt 0.182928 0.124196
vt 0.181282 0.019608
vt 0.245564 0.020251
vt 0.166589 0.345056
vt 0.229549 0.350080
vt 0.159688 0.260073
vt 0.153922 0.202590
vt 0.142691 0.154245
vt 0.144137 0.148770
vt 0.138046 0.253929
vt 0.095344 0.234624
vt 0.078555 0.219755
vt 0.093745 0.049797
vt 0.029082 0.061189
vt 0.238589 0.221876
vt 0.243703 0.139660
vt 0.245564 0.192692
vn 0.1024 -0.9435 0.3151
vn 0.7002 -0.6617 0.2680
vn -0.2680 -0.9435 0.1947
vn -0.2680 -0.9435 -0.1947
vn 0.1024 -0.9435 -0.3151
vn -0.8897 -0.3304 0.3151
vn -0.5746 -0.3304 -0.7488
vn 0.5346 -0.3304 -0.7779
vn -0.3066 -0.1256 0.9435
vn -0.9921 -0.1256 0.0000
vn -0.3066 -0.1256 -0.9435
vn 0.8026 -0.1256 -0.5831
vn -0.4713 0.6617 0.5831
vn -0.7002 0.6617 -0.2680
vn 0.0385 0.6617 -0.7488
vn 0.2680 0.9435 -0.1947
vn 0.4911 0.7947 -0.3568
vn 0.4089 0.6617 -0.6284
vn -0.1024 0.9435 -0.3151
vn -0.1876 0.7947 -0.5773
vn -0.4713 0.6617 -0.5831
vn -0.3313 0.9435 0.0000
vn -0.6071 0.7947 0.0000
vn -0.7002 0.6617 0.2680
vn -0.1024 0.9435 0.3151
vn -0.1876 0.7947 0.5773
vn 0.2680 0.9435 0.1947
vn 0.4911 0.7947 0.3568
vn -0.0247 0.3304 -0.9435
vn -0.3035 0.1876 -0.9342
vn -0.5346 0.3304 -0.7779
vn -0.9050 0.3304 -0.2680
vn -0.9822 0.1876 0.0000
vn -0.9050 0.3304 0.2680
vn 0.3066 0.1256 -0.9435
vn 0.3035 -0.1876 -0.9342
vn 0.0247 -0.3304 -0.9435
vn -0.8026 0.1256 -0.5831
vn -0.7947 -0.1876 -0.5773
vn -0.8897 -0.3304 -0.3151
vn -0.8026 0.1256 0.5831
vn -0.7947 -0.1876 0.5773
vn -0.5746 -0.3304 0.7488
vn 0.4713 -0.6617 -0.5831
vn 0.1876 -0.7947 -0.5773
vn -0.0385 -0.6617 -0.7488
vn -0.4089 -0.6617 -0.6284
vn -0.4911 -0.7947 -0.3568
vn -0.7240 -0.6617 -0.1947
vn -0.7240 -0.6617 0.1947
vn -0.4911 -0.7947 0.3568
vn -0.4089 -0.6617 0.6284
vn 0.6071 -0.7947 0.0000
vn 0.3313 -0.9435 0.0000
vn -0.0385 -0.6617 0.7488
vn 0.1876 -0.7947 0.5773
vn 0.4713 -0.6617 0.5831
vn 0.7240 0.6617 0.1947
vn 0.4089 0.6617 0.6284
vn 0.7240 0.6617 -0.1947
vn 0.0385 0.6617 0.7488
vn 0.9050 -0.3304 0.2680
vn 0.0247 -0.3304 0.9435
vn 0.8026 -0.1256 0.5831
vn 0.8897 0.3304 -0.3151
vn 0.7947 0.1876 -0.5773
vn 0.5746 0.3304 -0.7488
vn -0.5346 0.3304 0.7779
vn -0.3035 0.1876 0.9342
vn -0.0247 0.3304 0.9435
vn 0.5746 0.3304 0.7488
vn 0.7947 0.1876 0.5773
vn 0.8897 0.3304 0.3151
vn 0.3066 0.1256 0.9435
vn 0.3035 -0.1876 0.9342
vn 0.5346 -0.3304 0.7779
vn 0.9921 0.1256 0.0000
vn 0.9822 -0.1876 0.0000
vn 0.9050 -0.3304 -0.2680
vn 0.7002 -0.6617 -0.2680
s off
f 1/1/1 14/2/1 13/3/1
f 2/4/2 14/5/2 16/6/2
f 1/7/3 13/8/3 18/9/3
f 1/10/4 18/11/4 20/12/4
f 1/13/5 20/14/5 17/15/5
f 4/16/6 19/17/6 27/18/6
f 5/19/7 21/20/7 29/21/7
f 6/22/8 22/23/8 31/24/8
f 3/25/9 25/26/9 28/27/9
f 4/16/10 27/18/10 30/28/10
f 5/19/11 29/21/11 32/29/11
f 6/22/12 31/24/12 24/30/12
f 8/31/13 34/32/13 40/33/13
f 9/34/14 35/35/14 41/36/14
f 10/37/15 36/38/15 42/39/15
f 39/40/16 42/41/16 48/42/16 66/43/16
f 39/40/17 56/44/17 37/45/17 42/41/17
f 37/45/18 10/37/18 42/41/18
f 42/39/19 68/46/19 48/47/19
f 42/39/20 36/38/20 41/48/20 68/46/20
f 36/38/21 9/34/21 41/48/21
f 41/36/22 40/49/22 12/50/22
f 41/36/23 35/35/23 40/49/23
f 35/35/24 8/51/24 40/49/24
f 40/33/25 67/52/25 12/53/25
f 40/33/26 34/32/26 47/54/26 67/52/26
f 38/55/27 49/56/27 50/57/27 66/58/27 12/59/27
f 38/55/28 53/60/28 54/61/28 49/56/28
f 32/29/29 36/38/29 10/37/29
f 32/29/30 29/21/30 36/38/30
f 29/21/31 9/34/31 36/38/31
f 30/28/32 35/35/32 9/34/32
f 30/28/33 27/18/33 35/35/33
f 27/18/34 8/51/34 35/35/34
f 31/24/35 32/29/35 10/37/35
f 31/24/36 22/23/36 32/29/36
f 22/23/37 5/19/37 32/29/37
f 29/21/38 30/28/38 9/34/38
f 29/21/39 21/20/39 30/28/39
f 21/20/40 4/16/40 30/28/40
f 27/18/41 28/62/41 8/51/41
f 27/18/42 19/17/42 28/62/42
f 19/17/43 3/63/43 28/62/43
f 17/15/44 22/23/44 6/22/44
f 17/15/45 20/14/45 22/23/45
f 20/14/46 5/19/46 22/23/46
f 20/12/47 21/20/47 5/19/47
f 20/12/48 18/11/48 21/20/48
f 18/11/49 4/16/49 21/20/49
f 18/9/50 19/17/50 4/16/50
f 18/9/51 13/8/51 19/17/51
f 13/8/52 3/63/52 19/17/52
f 16/6/53 14/5/53 17/64/53
f 14/5/54 1/65/54 17/64/54
f 13/3/55 15/66/55 3/25/55
f 13/3/56 14/2/56 15/66/56
f 14/2/57 2/4/57 65/67/57 15/66/57
f 67/52/26 47/54/26 38/68/26
f 66/58/27 50/57/27 39/69/27
f 58/70/58 62/71/58 57/72/58
f 57/72/58 62/71/58 39/69/58
f 59/73/59 53/60/59 38/55/59
f 62/74/60 56/44/60 39/40/60
f 12/53/25 67/52/25 38/68/25
f 47/54/61 59/75/61 38/68/61
f 49/56/28 58/70/28 57/72/28 50/57/28
f 50/57/28 57/72/28 39/69/28
f 48/47/19 68/46/19 12/76/19
f 12/76/19 68/46/19 41/48/19
f 66/43/16 48/42/16 12/77/16
f 2/78/62 16/79/62 23/80/62
f 3/81/63 15/82/63 25/83/63
f 2/78/64 23/80/64 26/84/64
f 7/85/59 33/86/59 54/87/59 60/88/59
f 11/89/60 55/90/60 61/91/60
f 34/92/61 43/93/61 60/88/61 59/94/61 47/95/61
f 33/86/58 61/91/58 62/96/58 58/97/58
f 24/98/65 37/99/65 55/90/65 51/100/65
f 24/98/66 31/101/66 37/99/66
f 31/101/67 10/102/67 37/99/67
f 28/103/68 34/92/68 8/104/68
f 28/103/69 25/83/69 34/92/69
f 25/83/70 52/105/70 43/93/70 34/92/70
f 26/84/71 63/106/71 33/86/71 7/85/71
f 26/84/72 23/80/72 45/107/72 63/106/72
f 23/80/73 46/108/73 45/107/73
f 25/83/74 64/109/74 52/105/74
f 25/83/75 15/82/75 44/110/75 64/109/75
f 15/82/76 65/111/76 44/110/76
f 23/80/77 24/98/77 51/100/77 46/108/77
f 23/80/78 16/79/78 24/98/78
f 16/79/79 6/112/79 24/98/79
f 16/79/80 17/113/80 6/112/80
f 61/91/58 33/86/58 11/89/58
f 43/93/70 52/105/70 7/85/70
f 63/106/72 45/107/72 33/86/72
f 60/88/59 54/87/59 53/114/59 59/94/59
f 61/91/60 55/90/60 37/99/60 56/115/60 62/96/60
f 64/109/75 44/110/75 26/84/75
f 46/108/77 51/100/77 11/89/77
f 60/88/61 43/93/61 7/85/61
f 58/97/28 49/116/28 54/87/28 33/86/28
f 51/100/65 55/90/65 11/89/65
f 45/107/73 46/108/73 11/89/73 33/86/73
f 52/105/74 64/109/74 26/84/74 7/85/74
f 44/110/76 65/111/76 26/84/76
f 26/84/76 65/111/76 2/78/76
